{"title":"Jersey Shore S03E07 Cabs Are  PDTV XviD-FQM {TheCloon}","uid":6167608,"size":367238754,"categoryP":"video","categoryS":"tv_shows","magnet":"?xt=urn:btih:65dda8ff67e5ce2fe29f51de691100a34948b7eb&amp;dn=Jersey+Shore+S03E07+Cabs+Are++PDTV+XviD-FQM+%7BTheCloon%7D&amp;tr=udp%3A%2F%2Ftracker.openbittorrent.com%3A80&amp;tr=udp%3A%2F%2Fopen.demonii.com%3A1337&amp;tr=udp%3A%2F%2Ftracker.coppersurfer.tk%3A6969&amp;tr=udp%3A%2F%2Fexodus.desync.com%3A6969","seeders":4,"leechers":0,"uploader":"TheCloon","files":4,"time":1297442191,"description":"###\n\nJersey Shore S03E07 Cabs Are Here WS PDTV XviD-FQM\n\n###\n &lt;a href=&quot;\nhttp://www.tvrage.com/jersey_shore&quot; rel=&quot;nofollow&quot; target=&quot;_NEW&quot;&gt;\nhttp://www.tvrage.com/jersey_shore&lt;/a&gt;\n\n###\n\nNo Synopsis Available\n\n###\n\n[CODE]\nFormat                           : AVI\nFormat/Info                      : Audio Video Interleave\nFile size                        : 350 MiB\nDuration                         : 40mn 46s\nOverall bit rate                 : 1 201 Kbps\nWriting application              : transcode-1.0.4\n\nVideo\nID                               : 0\nFormat                           : MPEG-4 Visual\nFormat profile                   : Advanced Simple@L5\nFormat settings, BVOP            : 2\nFormat settings, QPel            : No\nFormat settings, GMC             : No warppoints\nFormat settings, Matrix          : Default (H.263)\nCodec ID                         : XVID\nCodec ID/Hint                    : XviD\nDuration                         : 40mn 46s\nBit rate                         : 1 050 Kbps\nWidth                            : 624 pixels\nHeight                           : 352 pixels\nDisplay aspect ratio             : 16:9\nFrame rate                       : 23.976 fps\nColor space                      : YUV\nChroma subsampling               : 4:2:0\nBit depth                        : 8 bits\nScan type                        : Progressive\nCompression mode                 : Lossy\nBits/(Pixel*Frame)               : 0.199\nStream size                      : 306 MiB (87%)\nWriting library                  : XviD 1.2.1 (UTC 2008-12-04)\n\nAudio\nID                               : 1\nFormat                           : MPEG Audio\nFormat version                   : Version 1\nFormat profile                   : Layer 3\nMode                             : Joint stereo\nMode extension                   : MS Stereo\nCodec ID                         : 55\nCodec ID/Hint                    : MP3\nDuration                         : 40mn 46s\nBit rate mode                    : Variable\nBit rate                         : 128 Kbps\nChannel(s)                       : 2 channels\nSampling rate                    : 48.0 KHz\nCompression mode                 : Lossy\nStream size                      : 40.2 MiB (11%)\nAlignment                        : Aligned on interleaves\nInterleave, duration             : 24 ms (0.58 video frame)\n[/CODE]\n","torrent":{"xt":"urn:btih:65dda8ff67e5ce2fe29f51de691100a34948b7eb","amp;dn":"Jersey+Shore+S03E07+Cabs+Are++PDTV+XviD-FQM+%7BTheCloon%7D","amp;tr":["udp%3A%2F%2Ftracker.openbittorrent.com%3A80","udp%3A%2F%2Fopen.demonii.com%3A1337","udp%3A%2F%2Ftracker.coppersurfer.tk%3A6969","udp%3A%2F%2Fexodus.desync.com%3A6969"],"infoHash":"65dda8ff67e5ce2fe29f51de691100a34948b7eb","infoHashBuffer":{"type":"Buffer","data":[101,221,168,255,103,229,206,47,226,159,81,222,105,17,0,163,73,72,183,235]},"announce":[],"urlList":[]}}